<?xml version="1.0" encoding="UTF-8" standalone="no"?>
<svg
   xmlns:dc="http://purl.org/dc/elements/1.1/"
   xmlns:cc="http://creativecommons.org/ns#"
   xmlns:rdf="http://www.w3.org/1999/02/22-rdf-syntax-ns#"
   xmlns:svg="http://www.w3.org/2000/svg"
   xmlns="http://www.w3.org/2000/svg"
   xmlns:sodipodi="http://sodipodi.sourceforge.net/DTD/sodipodi-0.dtd"
   xmlns:inkscape="http://www.inkscape.org/namespaces/inkscape"
   version="1.1"
   id="_x32_"
   x="0px"
   y="0px"
   viewBox="0 0 512 512"
   style="width: 256px; height: 256px; opacity: 1;"
   xml:space="preserve"
   sodipodi:docname="pin_red.svg"
   inkscape:version="1.0.1 (c497b03c, 2020-09-10)"><metadata
   id="metadata1640"><rdf:RDF><cc:Work
       rdf:about=""><dc:format>image/svg+xml</dc:format><dc:type
         rdf:resource="http://purl.org/dc/dcmitype/StillImage" /></cc:Work></rdf:RDF></metadata><defs
   id="defs1638" /><sodipodi:namedview
   pagecolor="#ffffff"
   bordercolor="#666666"
   borderopacity="1"
   objecttolerance="10"
   gridtolerance="10"
   guidetolerance="10"
   inkscape:pageopacity="0"
   inkscape:pageshadow="2"
   inkscape:window-width="1440"
   inkscape:window-height="790"
   id="namedview1636"
   showgrid="false"
   inkscape:zoom="0.80088266"
   inkscape:cx="183.79325"
   inkscape:cy="287.27477"
   inkscape:window-x="0"
   inkscape:window-y="23"
   inkscape:window-maximized="1"
   inkscape:current-layer="_x32_" />
<style
   type="text/css"
   id="style1629">
	.st0{fill:#4B4B4B;}
</style>

<g
   id="g2210"><g
     id="g1633">
	<path
   class="st0"
   d="M256,0C160.798,0,83.644,77.155,83.644,172.356c0,97.162,48.158,117.862,101.386,182.495   C248.696,432.161,256,512,256,512s7.304-79.839,70.97-157.148c53.228-64.634,101.386-85.334,101.386-182.495   C428.356,77.155,351.202,0,256,0z M256,231.921c-32.897,0-59.564-26.668-59.564-59.564s26.668-59.564,59.564-59.564   c32.896,0,59.564,26.668,59.564,59.564S288.896,231.921,256,231.921z"
   style="fill: rgb(234, 68, 54);"
   id="path1631" />
</g><ellipse
     style="fill:#811411;fill-opacity:1;stroke:none;stroke-width:20.4559"
     id="path2203"
     cx="255.94501"
     cy="172.45203"
     rx="59.544998"
     ry="59.551998" /></g></svg>
